<svg width="17" height="15" viewBox="0 0 17 15" fill="none" xmlns="http://www.w3.org/2000/svg">
<path d="M16.1332 7.59025H6.18792M2.6775 7.59025H1.24146M2.6775 7.59025C2.6775 7.15662 2.86238 6.74075 3.19147 6.43413C3.52056 6.12751 3.9669 5.95525 4.4323 5.95525C4.89771 5.95525 5.34405 6.12751 5.67314 6.43413C6.00223 6.74075 6.18711 7.15662 6.18711 7.59025C6.18711 8.02388 6.00223 8.43975 5.67314 8.74637C5.34405 9.05299 4.89771 9.22525 4.4323 9.22525C3.9669 9.22525 3.52056 9.05299 3.19147 8.74637C2.86238 8.43975 2.6775 8.02388 2.6775 7.59025ZM16.1332 12.5455H11.5063M11.5063 12.5455C11.5063 12.9792 11.3209 13.3956 10.9918 13.7023C10.6626 14.009 10.2162 14.1813 9.75065 14.1813C9.28525 14.1813 8.83891 14.0082 8.50982 13.7016C8.18073 13.395 7.99585 12.9791 7.99585 12.5455M11.5063 12.5455C11.5063 12.1118 11.3209 11.6962 10.9918 11.3895C10.6626 11.0828 10.2162 10.9105 9.75065 10.9105C9.28525 10.9105 8.83891 11.0828 8.50982 11.3894C8.18073 11.696 7.99585 12.1119 7.99585 12.5455M7.99585 12.5455H1.24146M16.1332 2.635H13.6338M10.1233 2.635H1.24146M10.1233 2.635C10.1233 2.20137 10.3082 1.7855 10.6373 1.47888C10.9664 1.17226 11.4128 1 11.8782 1C12.1086 1 12.3368 1.04229 12.5497 1.12446C12.7626 1.20662 12.956 1.32706 13.119 1.47888C13.2819 1.6307 13.4112 1.81095 13.4994 2.00931C13.5876 2.20768 13.633 2.42029 13.633 2.635C13.633 2.84971 13.5876 3.06232 13.4994 3.26069C13.4112 3.45905 13.2819 3.6393 13.119 3.79112C12.956 3.94294 12.7626 4.06338 12.5497 4.14554C12.3368 4.22771 12.1086 4.27 11.8782 4.27C11.4128 4.27 10.9664 4.09774 10.6373 3.79112C10.3082 3.4845 10.1233 3.06863 10.1233 2.635Z" stroke="#585656" stroke-width="0.8" stroke-miterlimit="10" stroke-linecap="round"/>
</svg>
