<svg width="449" height="528" viewBox="0 0 449 528" fill="none" xmlns="http://www.w3.org/2000/svg">
<path opacity="0.25" d="M449 413.684L197.615 268.547L0 382.641L62.3004 418.609L59.6674 420.125L66.6824 424.246L79.8397 459.96L143.579 467.794L152.942 472.486L154.281 471.715L251.383 527.777L449 413.684Z" fill="#5D1B43"/>
<path d="M307.558 408.771L299.795 444.749L115.035 335.263L122.798 299.283L307.558 408.771Z" fill="#B3B3B3"/>
<path d="M131.802 294.482L122.797 299.283L307.557 408.771L316.562 403.966L131.802 294.482Z" fill="#666666"/>
<path d="M316.561 403.967L308.798 439.949L299.795 444.75L307.558 408.772L316.561 403.967Z" fill="#D1D2D3"/>
<path d="M390.468 184.673L382.655 223.185L180.916 107.265L188.729 68.752L390.468 184.673Z" fill="#16619C"/>
<path d="M198.394 63.5605L188.729 68.7519L390.467 184.673L400.132 179.484L198.394 63.5605Z" fill="#2D81C3"/>
<path d="M400.131 179.484L392.32 217.998L382.655 223.185L390.467 184.674L400.131 179.484Z" fill="#D1D2D3"/>
<path d="M400.13 318.683L392.317 357.196L190.578 241.275L198.391 202.762L400.13 318.683Z" fill="#16619C"/>
<path d="M208.054 197.572L198.391 202.762L400.129 318.683L409.795 313.495L208.054 197.572Z" fill="#2D81C3"/>
<path d="M409.795 313.496L401.982 352.007L392.317 357.197L400.13 318.684L409.795 313.496Z" fill="#2D81C3"/>
<path d="M90.0898 289.725V319.423L198.917 256.59V226.893L90.0898 289.725Z" fill="#808080"/>
<path d="M192.494 223.184L198.917 226.894L90.0896 289.726L83.6621 286.016L192.494 223.184Z" fill="#B3B3B3"/>
<path d="M83.6621 286.016V315.715L90.0896 319.424V289.726L83.6621 286.016Z" fill="#6D6D6D"/>
<path d="M403.222 169.677L432.583 422.662L398.429 402.88L369.143 149.443L403.222 169.677Z" fill="#666666"/>
<path d="M410.817 166.5L440.006 418.283L432.584 422.661L403.223 169.676L410.817 166.5Z" fill="#D1D2D3"/>
<path d="M377.147 146.441L410.817 166.501L403.222 169.677L369.143 149.444L377.147 146.441Z" fill="#E8E8E8"/>
<path d="M198.673 50.8936L227.85 302.567L193.713 282.655L164.664 30.7365L198.673 50.8936Z" fill="#666666"/>
<path d="M206.266 47.7131L235.316 298.285L227.849 302.565L198.672 50.8915L206.266 47.7131Z" fill="#D1D2D3"/>
<path d="M172.787 27.7697L206.268 47.7163L198.673 50.8927L164.666 30.7376L172.787 27.7697Z" fill="#E8E8E8"/>
<path d="M404.18 169.209L334.516 479.496L323.318 485.966L393.581 173.015L404.18 169.209Z" fill="#6D6D6D"/>
<path d="M393.581 173.015L323.319 485.966L288.693 466.459L359.05 153.078L393.581 173.015Z" fill="#D1D2D3"/>
<path d="M369.648 149.27L404.179 169.208L393.58 173.014L359.049 153.077L369.648 149.27Z" fill="#E8E8E8"/>
<path d="M188.608 54.4819L117.856 369.616L83.3262 349.656L154.075 34.543L188.608 54.4819Z" fill="#D1D2D3"/>
<path d="M199.205 50.6758L129.055 363.127L117.855 369.616L188.608 54.4818L199.205 50.6758Z" fill="#6D6D6D"/>
<path d="M164.677 30.7383L199.207 50.6753L188.609 54.4813L154.076 34.5424L164.677 30.7383Z" fill="#E8E8E8"/>
<path d="M198.867 52.1816L202.937 87.687L192.271 81.5561L198.867 52.1816Z" fill="#AAAAAA"/>
<path d="M335.504 430.84V460.538L444.333 397.704V368.008L335.504 430.84Z" fill="#B3B3B3"/>
<path d="M437.908 364.295L444.333 368.007L335.504 430.84L329.078 427.129L437.908 364.295Z" fill="#808080"/>
<path d="M329.078 427.129V456.825L335.504 460.537V430.839L329.078 427.129Z" fill="#6D6D6D"/>
<path d="M403.514 172.18L407.362 205.163L397.395 199.434L403.514 172.18Z" fill="#AAAAAA"/>
<g opacity="0.5">
<path d="M343.097 397.979L351.771 402.927L350.958 406.287L342.031 402.646L307.484 382.774L308.539 378.08L343.097 397.979Z" fill="#E6E6E6"/>
<path d="M334.183 263.828L368.745 283.727L377.417 288.675L376.606 292.033L367.678 288.394L333.131 268.524L334.183 263.828Z" fill="#E6E6E6"/>
<path d="M129.068 145.943L163.635 165.806L172.244 170.756L171.492 174.107L162.564 170.494L127.998 150.708L129.068 145.943Z" fill="#E6E6E6"/>
<path d="M103.414 260.201L137.984 280.058L146.598 285.021L145.844 288.362L136.918 284.725L102.371 264.851L103.414 260.201Z" fill="#E6E6E6"/>
</g>
<path d="M130.109 45.9375L418.953 211.926L409.6 217.477L120.758 51.4886L130.109 45.9375Z" fill="#2D81C3"/>
<path d="M418.953 211.926L406.514 294.469L397.162 300.019L409.6 217.477L418.953 211.926Z" fill="#2D81C3"/>
<path d="M120.758 51.4884L409.6 217.477L397.162 300.018L108.32 134.032L120.758 51.4884Z" fill="#26A9E0"/>
<path d="M396.557 299.671L361.306 279.413L351.736 184.221L386.989 204.479L396.557 299.671Z" fill="white"/>
<path d="M321.063 256.284L285.812 236.028L276.244 140.836L311.495 161.094L321.063 256.284Z" fill="white"/>
<path d="M245.569 212.904L210.32 192.647L200.752 97.457L236.001 117.715L245.569 212.904Z" fill="white"/>
<path d="M160.511 74.3307L170.076 169.521L134.827 149.262L125.258 54.0742L160.511 74.3307Z" fill="white"/>
<path d="M276.244 140.838L298.655 142.795L332.904 162.476L311.495 161.096L276.244 140.838Z" fill="white"/>
<path d="M351.738 184.221L374.147 186.18L408.4 205.861L386.991 204.479L351.738 184.221Z" fill="white"/>
<path d="M200.754 97.4551L223.163 99.4107L257.413 119.093L236.003 117.714L200.754 97.4551Z" fill="white"/>
<path d="M125.26 54.0742L147.669 56.0298L181.919 75.7104L160.513 74.3307L125.26 54.0742Z" fill="white"/>
<path d="M109.234 162.955L398.077 328.942L388.725 334.491L99.8811 168.504L109.234 162.955Z" fill="#26A9E0"/>
<path d="M398.076 328.941L385.638 411.489L376.285 417.036L388.723 334.49L398.076 328.941Z" fill="#2D81C3"/>
<path d="M99.8832 168.504L388.725 334.49L376.286 417.036L87.4434 251.049L99.8832 168.504Z" fill="#26A9E0"/>
<path d="M375.681 416.687L340.429 396.428L330.861 301.24L366.112 321.497L375.681 416.687Z" fill="white"/>
<path d="M300.188 373.304L264.937 353.047L255.369 257.855L290.62 278.114L300.188 373.304Z" fill="white"/>
<path d="M224.694 329.921L189.443 309.665L179.875 214.473L215.128 234.731L224.694 329.921Z" fill="white"/>
<path d="M139.634 191.346L149.201 286.536L113.95 266.28L104.383 171.09L139.634 191.346Z" fill="white"/>
<path d="M255.371 257.855L277.78 259.813L312.03 279.495L290.622 278.114L255.371 257.855Z" fill="white"/>
<path d="M330.861 301.24L353.271 303.196L387.553 322.896L366.112 321.497L330.861 301.24Z" fill="white"/>
<path d="M179.877 214.471L202.286 216.428L236.536 236.111L215.13 234.729L179.877 214.471Z" fill="white"/>
<path d="M104.383 171.09L126.792 173.045L161.042 192.728L139.634 191.346L104.383 171.09Z" fill="white"/>
<path d="M434.61 385.439C435.959 384.66 437.049 385.292 437.049 386.849C437.049 388.407 435.957 390.299 434.61 391.078C433.261 391.857 432.168 391.226 432.168 389.668C432.168 388.112 433.261 386.218 434.61 385.439Z" fill="#6D6D6D"/>
<path d="M341.875 438.416C343.224 437.637 344.317 438.268 344.317 439.826C344.317 441.383 343.224 443.278 341.875 444.055C340.528 444.834 339.434 444.204 339.434 442.646C339.434 441.089 340.526 439.196 341.875 438.416Z" fill="#6D6D6D"/>
<path d="M391.818 159.197L390.329 171.134L363.75 155.787L391.821 157.636L391.818 159.197Z" fill="#CCCCCC"/>
<path d="M370.293 119.112C372.233 118.936 379.926 118.993 381.879 119.072C383.787 119.146 385.917 119.801 388.162 121.096C396.405 125.855 403.089 137.432 403.089 146.952C403.089 153.463 399.96 157.312 395.347 157.576C394.69 157.612 393.355 157.631 391.822 157.637V159.196H391.818C391.818 159.476 391.73 159.791 391.537 160.124C390.873 161.274 389.256 162.208 387.93 162.208C387.008 162.208 386.466 161.759 386.445 161.098H386.443V157.623C385.504 157.616 384.725 157.608 384.273 157.6C382.308 157.568 380.104 156.915 377.773 155.57C369.53 150.809 362.846 139.233 362.846 129.715C362.846 123.345 365.84 119.519 370.293 119.112Z" fill="#CECECE"/>
<path d="M392.579 156.252C395.742 155.117 397.765 151.707 397.765 146.535C397.765 137.467 391.55 126.439 383.88 121.906C381.791 120.672 380.677 119.929 381.869 119.977C383.643 120.046 385.622 120.672 387.711 121.906C395.379 126.439 401.594 137.467 401.594 146.535C401.594 152.738 398.685 156.405 394.393 156.655C393.316 156.718 391.95 156.477 392.579 156.252Z" fill="#EAEAEA"/>
<path d="M376.917 123.228C384.135 127.394 389.988 137.531 389.988 145.865C389.988 154.2 384.137 157.577 376.917 153.41C369.699 149.244 363.848 139.108 363.848 130.771C363.846 122.438 369.697 119.058 376.917 123.228Z" fill="#2D81C3"/>
<path d="M375.544 129.909C379.893 132.421 383.42 138.527 383.42 143.55C383.42 148.573 379.893 150.609 375.544 148.098C371.193 145.588 367.666 139.478 367.666 134.457C367.666 129.432 371.193 127.396 375.544 129.909Z" fill="#26A9E0"/>
<path d="M376.917 123.228C369.699 119.058 363.848 122.438 363.848 130.773C363.848 139.108 369.699 149.244 376.917 153.412C384.135 157.579 389.988 154.2 389.988 145.867C389.986 137.529 384.135 127.394 376.917 123.228ZM376.917 152.426C370.17 148.53 364.699 139.058 364.699 131.266C364.699 123.475 370.17 120.317 376.917 124.213C383.666 128.109 389.135 137.583 389.135 145.375C389.133 153.163 383.664 156.32 376.917 152.426Z" fill="#808080"/>
<path d="M186.04 40.2029L184.552 52.1375L157.975 36.793L186.046 38.6414L186.04 40.2029Z" fill="#CCCCCC"/>
<path d="M164.516 0.115687C166.456 -0.0622708 174.147 -0.00103071 176.102 0.0755101C178.01 0.150137 180.138 0.804555 182.384 2.10192C190.628 6.86085 197.312 18.4376 197.312 27.9574C197.312 34.4691 194.183 38.3191 189.57 38.5813C188.913 38.6196 187.578 38.6368 186.045 38.6444V40.2039L186.041 40.2059C186.041 40.4852 185.953 40.7991 185.762 41.1339C185.096 42.284 183.481 43.2159 182.153 43.2159C181.23 43.2159 180.691 42.7662 180.668 42.106V38.631C179.726 38.6234 178.948 38.6157 178.498 38.61C176.533 38.5775 174.33 37.923 171.998 36.5778C163.752 31.817 157.07 20.2402 157.07 10.7223C157.068 4.34841 160.061 0.523267 164.516 0.115687Z" fill="#CECECE"/>
<path d="M186.8 37.2553C189.963 36.1206 191.983 32.7107 191.983 27.5385C191.983 18.4703 185.768 7.44458 178.101 2.90954C176.011 1.67532 174.899 0.932858 176.088 0.980696C177.864 1.0515 179.842 1.67532 181.932 2.90954C189.599 7.44458 195.816 18.4703 195.816 27.5385C195.816 33.7421 192.908 37.4103 188.614 37.6591C187.54 37.7203 186.17 37.4811 186.8 37.2553Z" fill="#EAEAEA"/>
<path d="M171.138 4.22837C178.355 8.39601 184.207 18.53 184.207 26.8653C184.207 35.2006 178.355 38.578 171.138 34.4123C163.918 30.2446 158.066 20.1087 158.066 11.7734C158.064 3.44001 163.916 0.0607177 171.138 4.22837Z" fill="#2D81C3"/>
<path d="M169.765 10.9103C174.114 13.4228 177.641 19.5288 177.641 24.5518C177.641 29.5748 174.114 31.6108 169.765 29.1003C165.413 26.5897 161.887 20.4799 161.887 15.4569C161.889 10.4339 165.415 8.39788 169.765 10.9103Z" fill="#26A9E0"/>
<path d="M171.14 4.22866C163.92 0.0610143 158.068 3.43839 158.068 11.7756C158.068 20.1109 163.92 30.2468 171.14 34.4145C178.357 38.5802 184.209 35.2009 184.209 26.8675C184.209 18.5342 178.357 8.39631 171.14 4.22866ZM171.14 33.4271C164.393 29.5312 158.922 20.0573 158.922 12.2674C158.922 4.47742 164.393 1.32012 171.14 5.21413C177.887 9.11006 183.356 18.5858 183.356 26.3758C183.356 34.1657 177.887 37.323 171.14 33.4271Z" fill="#808080"/>
<path d="M161.097 463.362V467.792L71.8906 416.288L71.9423 411.891L161.097 463.362Z" fill="#9E691B"/>
<path d="M180.564 452.123V456.555L161.098 467.793V463.363L180.564 452.123Z" fill="#EDA11B"/>
<path d="M91.4116 400.654L180.562 452.124L161.096 463.364L71.9453 411.892L91.4116 400.654Z" fill="#E5B93C"/>
<path d="M128.402 340.785L122.928 342.674L162.409 456.618L167.519 453.675L128.402 340.785Z" fill="#F2C47C"/>
<path d="M122.927 342.65L162.409 456.618L83.4453 411.03L122.927 342.65Z" fill="#FFD246"/>
<path d="M87.0078 409.757L122.069 349.031L157.131 450.241L87.0078 409.757ZM92.6623 408.241L149.582 441.102L121.122 358.949L92.6623 408.241Z" fill="#FF4848"/>
<path d="M120.153 407.74L118.159 406.59C117.734 401.092 117.239 395.369 116.678 389.418C116.115 383.468 115.834 380.001 115.834 379.018C115.834 377.877 116.142 377.104 116.754 376.7C117.367 376.299 118.151 376.371 119.104 376.92C120.059 377.472 120.842 378.308 121.454 379.429C122.068 380.55 122.374 381.67 122.374 382.793C122.374 383.777 122.099 386.92 121.544 392.227C120.991 397.533 120.526 402.705 120.153 407.74Z" fill="#9E2A3D"/>
<path d="M116.635 412.215C117.326 411.817 118.148 411.894 119.101 412.445C120.056 412.996 120.877 413.867 121.566 415.063C122.257 416.259 122.601 417.407 122.601 418.509C122.601 419.611 122.257 420.35 121.566 420.727C120.877 421.107 120.056 421.021 119.101 420.468C118.148 419.919 117.324 419.056 116.635 417.879C115.946 416.704 115.6 415.566 115.6 414.466C115.602 413.363 115.946 412.613 116.635 412.215Z" fill="#9E2A3D"/>
<path d="M162.41 456.619L156.246 460.565L76.9766 414.797L83.4462 411.031L162.41 456.619Z" fill="#B3B3B3"/>
<path opacity="0.25" d="M325.953 393.396L319.139 454.896L296.523 470.872L288.691 466.458L290.806 328.141L325.953 393.396Z" fill="#5D1B43"/>
<path d="M224.19 298.5L284.186 332.855L312.52 399.314L306.274 454.896L267.152 482.728L207.156 448.371L178.822 381.912L185.068 326.332L224.19 298.5Z" fill="#FF4848"/>
<path d="M189.916 331.419L184.158 382.651L210.253 443.861L265.401 475.438L301.428 449.806L307.186 398.572L281.091 337.364L225.944 305.785L189.916 331.419ZM192.671 334.448L226.851 310.135L279.373 340.211L304.126 398.266L298.673 446.779L264.495 471.096L211.973 441.019L187.22 382.963L192.671 334.448Z" fill="white"/>
<path d="M230.808 293.785L224.189 298.5L284.186 332.855L290.805 328.141L230.808 293.785Z" fill="#F2414F"/>
<path d="M290.804 328.141L284.186 332.856L312.519 399.314L319.138 394.601L290.804 328.141Z" fill="#C63446"/>
<path d="M319.138 394.6L312.89 450.182L306.273 454.895L312.519 399.313L319.138 394.6Z" fill="#9E2A3D"/>
<path d="M229.565 387.075L228.526 396.31L226.811 395.326L225.889 403.531L216.848 398.352L217.77 390.15L204.49 382.546L205.399 374.465L217.636 347.484L231.308 355.315L227.849 386.097L229.565 387.075ZM213.956 378.139L218.805 380.917L221.268 359L213.956 378.139Z" fill="white"/>
<path d="M232.383 391.684L234.515 372.706C235.079 367.683 236.474 364.468 238.702 363.071C240.927 361.671 243.895 362.032 247.603 364.156C251.342 366.297 254.044 369.181 255.707 372.807C257.366 376.433 257.915 380.76 257.351 385.785L255.217 404.763C254.98 406.881 254.548 408.678 253.92 410.159C253.292 411.636 252.548 412.733 251.685 413.452C250.822 414.172 249.852 414.637 248.776 414.849C247.701 415.06 246.608 415.033 245.5 414.759C244.393 414.49 243.258 414.025 242.096 413.359C240.937 412.695 239.84 411.887 238.811 410.93C237.779 409.974 236.813 408.824 235.912 407.482C235.011 406.139 234.257 404.688 233.65 403.127C233.043 401.567 232.619 399.797 232.381 397.827C232.146 395.85 232.146 393.806 232.383 391.684ZM245.814 400.505L248.21 379.195C248.267 378.668 248.309 378.249 248.338 377.932C248.363 377.614 248.363 377.195 248.336 376.674C248.308 376.152 248.239 375.716 248.132 375.364C248.024 375.014 247.843 374.656 247.588 374.294C247.332 373.934 247.001 373.638 246.593 373.402C246.184 373.169 245.83 373.073 245.531 373.115C245.231 373.157 244.995 373.276 244.827 373.471C244.657 373.663 244.503 373.973 244.37 374.399C244.234 374.826 244.146 375.195 244.102 375.503C244.06 375.812 244.008 376.229 243.949 376.755L241.551 398.064C241.425 399.193 241.551 400.194 241.932 401.068C242.311 401.941 242.762 402.526 243.285 402.827C243.809 403.125 244.327 403.096 244.846 402.739C245.365 402.377 245.688 401.634 245.814 400.505Z" fill="white"/>
<path d="M281.997 417.102L280.958 426.335L279.243 425.352L278.321 433.553L269.277 428.377L270.2 420.174L256.922 412.571L257.829 404.488L270.068 377.51L283.74 385.336L280.28 416.121L281.997 417.102ZM266.39 408.166L271.241 410.943L273.703 389.029L266.39 408.166Z" fill="white"/>
<path d="M412.839 252.516L417.952 296.561L389.147 323.528L385.789 293.478L397.165 300.019L406.516 294.47L412.839 252.516Z" fill="#AAAAAA"/>
<path d="M426.571 370.842L395.014 373.301L396.721 388.077L426.571 370.842Z" fill="#AAAAAA"/>
<path d="M215.45 195.591L216.822 207.428L182.863 188.54L181.422 176.039L215.45 195.591Z" fill="#AAAAAA"/>
</svg>
